<mxfile host="65bd71144e" pages="3">
    <diagram name="Page-1" id="5eX4Q030cal43u4tE9cf">
        <mxGraphModel dx="772" dy="374" grid="1" gridSize="10" guides="1" tooltips="1" connect="1" arrows="1" fold="1" page="1" pageScale="1" pageWidth="827" pageHeight="1169" math="0" shadow="0">
            <root>
                <mxCell id="0"/>
                <mxCell id="1" parent="0"/>
                <mxCell id="8" value="FIN" style="ellipse;whiteSpace=wrap;html=1;" parent="1" vertex="1">
                    <mxGeometry x="354" y="585" width="120" height="50" as="geometry"/>
                </mxCell>
                <mxCell id="10" value="DÉBUT" style="ellipse;whiteSpace=wrap;html=1;" parent="1" vertex="1">
                    <mxGeometry x="364" y="60" width="120" height="50" as="geometry"/>
                </mxCell>
                <mxCell id="11" style="edgeStyle=orthogonalEdgeStyle;rounded=0;orthogonalLoop=1;jettySize=auto;html=1;exitX=0.5;exitY=1;exitDx=0;exitDy=0;entryX=0.5;entryY=0;entryDx=0;entryDy=0;" edge="1" parent="1" source="10" target="22">
                    <mxGeometry relative="1" as="geometry">
                        <mxPoint x="424" y="110" as="sourcePoint"/>
                        <mxPoint x="424" y="160" as="targetPoint"/>
                    </mxGeometry>
                </mxCell>
                <mxCell id="13" style="edgeStyle=orthogonalEdgeStyle;rounded=0;orthogonalLoop=1;jettySize=auto;html=1;exitX=0.5;exitY=1;exitDx=0;exitDy=0;" edge="1" parent="1" source="14" target="17">
                    <mxGeometry relative="1" as="geometry"/>
                </mxCell>
                <mxCell id="14" value="LIRE rayon" style="shape=parallelogram;perimeter=parallelogramPerimeter;whiteSpace=wrap;html=1;fixedSize=1;" vertex="1" parent="1">
                    <mxGeometry x="334" y="260" width="160" height="60" as="geometry"/>
                </mxCell>
                <mxCell id="16" value="" style="edgeStyle=orthogonalEdgeStyle;rounded=0;orthogonalLoop=1;jettySize=auto;html=1;entryX=0.5;entryY=0;entryDx=0;entryDy=0;" edge="1" parent="1" source="17" target="23">
                    <mxGeometry relative="1" as="geometry">
                        <mxPoint x="414" y="480" as="targetPoint"/>
                    </mxGeometry>
                </mxCell>
                <mxCell id="17" value="CALCULER circonference = 2 * PI * rayon" style="rounded=0;whiteSpace=wrap;html=1;" vertex="1" parent="1">
                    <mxGeometry x="334" y="370" width="160" height="60" as="geometry"/>
                </mxCell>
                <mxCell id="18" value="" style="edgeStyle=orthogonalEdgeStyle;rounded=0;orthogonalLoop=1;jettySize=auto;html=1;entryX=0.5;entryY=0;entryDx=0;entryDy=0;exitX=0.5;exitY=1;exitDx=0;exitDy=0;" edge="1" parent="1" source="23" target="8">
                    <mxGeometry relative="1" as="geometry">
                        <mxPoint x="414" y="540" as="sourcePoint"/>
                        <mxPoint x="414" y="590" as="targetPoint"/>
                        <Array as="points"/>
                    </mxGeometry>
                </mxCell>
                <mxCell id="21" style="edgeStyle=orthogonalEdgeStyle;rounded=0;orthogonalLoop=1;jettySize=auto;html=1;exitX=0.5;exitY=1;exitDx=0;exitDy=0;entryX=0.558;entryY=-0.017;entryDx=0;entryDy=0;entryPerimeter=0;" edge="1" parent="1" source="22" target="14">
                    <mxGeometry relative="1" as="geometry">
                        <mxPoint x="424" y="220" as="sourcePoint"/>
                    </mxGeometry>
                </mxCell>
                <mxCell id="22" value="AFFICHER &quot;&lt;span style=&quot;font-size: 11pt; line-height: 15.6933px;&quot;&gt;Veuillez saisir le rayon du cercle :&lt;/span&gt;&quot;" style="shape=parallelogram;perimeter=parallelogramPerimeter;whiteSpace=wrap;html=1;fixedSize=1;" vertex="1" parent="1">
                    <mxGeometry x="339" y="150" width="170" height="60" as="geometry"/>
                </mxCell>
                <mxCell id="23" value="AFFICHER &quot;La circonférence du cercle est : &quot;&lt;br&gt;circonference&quot;" style="shape=parallelogram;perimeter=parallelogramPerimeter;whiteSpace=wrap;html=1;fixedSize=1;" vertex="1" parent="1">
                    <mxGeometry x="289" y="480" width="250" height="60" as="geometry"/>
                </mxCell>
            </root>
        </mxGraphModel>
    </diagram>
    <diagram id="BtFexejdZ64q9sORLQ9k" name="Page-2">
        <mxGraphModel dx="1034" dy="458" grid="1" gridSize="10" guides="1" tooltips="1" connect="1" arrows="1" fold="1" page="1" pageScale="1" pageWidth="827" pageHeight="1169" math="0" shadow="0">
            <root>
                <mxCell id="0"/>
                <mxCell id="1" parent="0"/>
                <mxCell id="m4159YTi05dSgR7cBVEY-1" style="edgeStyle=none;html=1;exitX=0.5;exitY=1;exitDx=0;exitDy=0;entryX=0.5;entryY=0;entryDx=0;entryDy=0;" edge="1" parent="1" source="m4159YTi05dSgR7cBVEY-2" target="m4159YTi05dSgR7cBVEY-5">
                    <mxGeometry relative="1" as="geometry"/>
                </mxCell>
                <mxCell id="m4159YTi05dSgR7cBVEY-2" value="DÉBUT" style="rounded=1;whiteSpace=wrap;html=1;" vertex="1" parent="1">
                    <mxGeometry x="70" y="130" width="120" height="60" as="geometry"/>
                </mxCell>
                <mxCell id="m4159YTi05dSgR7cBVEY-3" value="FIN" style="rounded=1;whiteSpace=wrap;html=1;" vertex="1" parent="1">
                    <mxGeometry x="70" y="890" width="120" height="60" as="geometry"/>
                </mxCell>
                <mxCell id="m4159YTi05dSgR7cBVEY-4" style="edgeStyle=none;html=1;exitX=0.5;exitY=1;exitDx=0;exitDy=0;entryX=0.5;entryY=0;entryDx=0;entryDy=0;" edge="1" parent="1" source="m4159YTi05dSgR7cBVEY-5" target="m4159YTi05dSgR7cBVEY-7">
                    <mxGeometry relative="1" as="geometry"/>
                </mxCell>
                <mxCell id="m4159YTi05dSgR7cBVEY-5" value="AFFICHER &quot;Veuillez saisir la longueur du rectangle&quot;" style="rounded=0;whiteSpace=wrap;html=1;" vertex="1" parent="1">
                    <mxGeometry x="70" y="230" width="120" height="60" as="geometry"/>
                </mxCell>
                <mxCell id="m4159YTi05dSgR7cBVEY-6" value="" style="edgeStyle=none;html=1;" edge="1" parent="1" source="m4159YTi05dSgR7cBVEY-7" target="m4159YTi05dSgR7cBVEY-9">
                    <mxGeometry relative="1" as="geometry"/>
                </mxCell>
                <mxCell id="m4159YTi05dSgR7cBVEY-7" value="LIRE longueur" style="shape=parallelogram;perimeter=parallelogramPerimeter;whiteSpace=wrap;html=1;fixedSize=1;" vertex="1" parent="1">
                    <mxGeometry x="70" y="330" width="120" height="60" as="geometry"/>
                </mxCell>
                <mxCell id="m4159YTi05dSgR7cBVEY-8" value="" style="edgeStyle=none;html=1;" edge="1" parent="1" source="m4159YTi05dSgR7cBVEY-9" target="m4159YTi05dSgR7cBVEY-11">
                    <mxGeometry relative="1" as="geometry"/>
                </mxCell>
                <mxCell id="m4159YTi05dSgR7cBVEY-9" value="AFFICHER &quot;Veuillez saisir la largeur du rectangle&quot;" style="whiteSpace=wrap;html=1;" vertex="1" parent="1">
                    <mxGeometry x="70" y="440" width="120" height="60" as="geometry"/>
                </mxCell>
                <mxCell id="m4159YTi05dSgR7cBVEY-10" value="" style="edgeStyle=none;html=1;" edge="1" parent="1" source="m4159YTi05dSgR7cBVEY-11" target="m4159YTi05dSgR7cBVEY-13">
                    <mxGeometry relative="1" as="geometry"/>
                </mxCell>
                <mxCell id="m4159YTi05dSgR7cBVEY-11" value="LIRE largeur" style="shape=parallelogram;perimeter=parallelogramPerimeter;whiteSpace=wrap;html=1;fixedSize=1;" vertex="1" parent="1">
                    <mxGeometry x="70" y="550" width="120" height="60" as="geometry"/>
                </mxCell>
                <mxCell id="m4159YTi05dSgR7cBVEY-12" value="" style="edgeStyle=none;html=1;" edge="1" parent="1" source="m4159YTi05dSgR7cBVEY-13" target="m4159YTi05dSgR7cBVEY-15">
                    <mxGeometry relative="1" as="geometry"/>
                </mxCell>
                <mxCell id="m4159YTi05dSgR7cBVEY-13" value="CALCULER aire = longueur x largeur" style="whiteSpace=wrap;html=1;" vertex="1" parent="1">
                    <mxGeometry x="70" y="670" width="120" height="60" as="geometry"/>
                </mxCell>
                <mxCell id="m4159YTi05dSgR7cBVEY-14" style="edgeStyle=none;html=1;exitX=0.5;exitY=1;exitDx=0;exitDy=0;entryX=0.5;entryY=0;entryDx=0;entryDy=0;" edge="1" parent="1" source="m4159YTi05dSgR7cBVEY-15" target="m4159YTi05dSgR7cBVEY-3">
                    <mxGeometry relative="1" as="geometry"/>
                </mxCell>
                <mxCell id="m4159YTi05dSgR7cBVEY-15" value="AFFICHER &quot;L'aire du rectangle est: &quot; aire" style="whiteSpace=wrap;html=1;" vertex="1" parent="1">
                    <mxGeometry x="70" y="790" width="120" height="60" as="geometry"/>
                </mxCell>
            </root>
        </mxGraphModel>
    </diagram>
    <diagram id="sdB3q6RiLR2rOzRtmzpr" name="Page-3">
        <mxGraphModel dx="392" dy="451" grid="1" gridSize="10" guides="1" tooltips="1" connect="1" arrows="1" fold="1" page="1" pageScale="1" pageWidth="827" pageHeight="1169" math="0" shadow="0">
            <root>
                <mxCell id="0"/>
                <mxCell id="1" parent="0"/>
                <mxCell id="srWkxfmoEyLZCl1tzg56-6" style="edgeStyle=orthogonalEdgeStyle;rounded=0;orthogonalLoop=1;jettySize=auto;html=1;exitX=0.5;exitY=1;exitDx=0;exitDy=0;entryX=0.5;entryY=0;entryDx=0;entryDy=0;" edge="1" parent="1" source="1Uzi8sGTm2Drs4TYPaYb-1" target="srWkxfmoEyLZCl1tzg56-1">
                    <mxGeometry relative="1" as="geometry"/>
                </mxCell>
                <mxCell id="1Uzi8sGTm2Drs4TYPaYb-1" value="DÉBUT" style="rounded=1;whiteSpace=wrap;html=1;" vertex="1" parent="1">
                    <mxGeometry x="120" y="40" width="120" height="60" as="geometry"/>
                </mxCell>
                <mxCell id="srWkxfmoEyLZCl1tzg56-8" style="edgeStyle=orthogonalEdgeStyle;rounded=0;orthogonalLoop=1;jettySize=auto;html=1;exitX=0.5;exitY=1;exitDx=0;exitDy=0;" edge="1" parent="1" source="1Uzi8sGTm2Drs4TYPaYb-2" target="srWkxfmoEyLZCl1tzg56-2">
                    <mxGeometry relative="1" as="geometry"/>
                </mxCell>
                <mxCell id="1Uzi8sGTm2Drs4TYPaYb-2" value="LIRE rayon" style="shape=parallelogram;perimeter=parallelogramPerimeter;whiteSpace=wrap;html=1;fixedSize=1;" vertex="1" parent="1">
                    <mxGeometry x="90" y="270" width="160" height="60" as="geometry"/>
                </mxCell>
                <mxCell id="srWkxfmoEyLZCl1tzg56-1" value="AFFICHER &quot;&lt;span style=&quot;font-size: 11pt; line-height: 15.6933px;&quot;&gt;Veuillez saisir le rayon du cercle :&lt;/span&gt;&quot;" style="rounded=0;whiteSpace=wrap;html=1;" vertex="1" parent="1">
                    <mxGeometry x="100" y="160" width="160" height="60" as="geometry"/>
                </mxCell>
                <mxCell id="srWkxfmoEyLZCl1tzg56-9" value="" style="edgeStyle=orthogonalEdgeStyle;rounded=0;orthogonalLoop=1;jettySize=auto;html=1;" edge="1" parent="1" source="srWkxfmoEyLZCl1tzg56-2" target="srWkxfmoEyLZCl1tzg56-3">
                    <mxGeometry relative="1" as="geometry"/>
                </mxCell>
                <mxCell id="srWkxfmoEyLZCl1tzg56-2" value="CALCULER circonference = 2 * PI * rayon" style="rounded=0;whiteSpace=wrap;html=1;" vertex="1" parent="1">
                    <mxGeometry x="90" y="370" width="160" height="60" as="geometry"/>
                </mxCell>
                <mxCell id="srWkxfmoEyLZCl1tzg56-10" value="" style="edgeStyle=orthogonalEdgeStyle;rounded=0;orthogonalLoop=1;jettySize=auto;html=1;" edge="1" parent="1" source="srWkxfmoEyLZCl1tzg56-3" target="srWkxfmoEyLZCl1tzg56-5">
                    <mxGeometry relative="1" as="geometry"/>
                </mxCell>
                <mxCell id="srWkxfmoEyLZCl1tzg56-3" value="AFFICHER &quot;&lt;span style=&quot;font-size:11.0pt;line-height:107%;&lt;br/&gt;font-family:&amp;quot;Calibri&amp;quot;,sans-serif;mso-ascii-theme-font:minor-latin;mso-fareast-font-family:&lt;br/&gt;Calibri;mso-fareast-theme-font:minor-latin;mso-hansi-theme-font:minor-latin;&lt;br/&gt;mso-bidi-theme-font:minor-latin;mso-ansi-language:FR-CA;mso-fareast-language:&lt;br/&gt;EN-US;mso-bidi-language:AR-SA&quot;&gt;La circonférence du cercle est : &quot;&lt;br/&gt;circonference&lt;/span&gt;&quot;" style="rounded=0;whiteSpace=wrap;html=1;" vertex="1" parent="1">
                    <mxGeometry x="75" y="470" width="190" height="60" as="geometry"/>
                </mxCell>
                <mxCell id="srWkxfmoEyLZCl1tzg56-5" value="FIN" style="rounded=1;whiteSpace=wrap;html=1;" vertex="1" parent="1">
                    <mxGeometry x="110" y="585" width="120" height="60" as="geometry"/>
                </mxCell>
                <mxCell id="srWkxfmoEyLZCl1tzg56-7" style="edgeStyle=orthogonalEdgeStyle;rounded=0;orthogonalLoop=1;jettySize=auto;html=1;exitX=0.5;exitY=1;exitDx=0;exitDy=0;entryX=0.558;entryY=-0.017;entryDx=0;entryDy=0;entryPerimeter=0;" edge="1" parent="1" source="srWkxfmoEyLZCl1tzg56-1" target="1Uzi8sGTm2Drs4TYPaYb-2">
                    <mxGeometry relative="1" as="geometry"/>
                </mxCell>
            </root>
        </mxGraphModel>
    </diagram>
</mxfile>